<?xml version="1.0" encoding="utf-8"?>
<!-- Generator: Adobe Illustrator 21.0.2, SVG Export Plug-In . SVG Version: 6.00 Build 0)  -->
<svg version="1.1" xmlns="http://www.w3.org/2000/svg" xmlns:xlink="http://www.w3.org/1999/xlink" x="0px" y="0px"
	 viewBox="0 0 397 200" style="enable-background:new 0 0 397 200;" xml:space="preserve">
<style type="text/css">
	.st0{fill:#0066A1;}
</style>
<g id="snapback">
	<g>
		<path class="st0" d="M344.7,175.1c-4.6-5.7-11.1-9.8-18.2-11.6v-8.8c6.5-3.1,11.1-9.7,11.1-17.4V129c0-3.7-1.9-8.1-5-11.5
			c-3.6-3.9-8.3-6-13.2-6c-11.7,0-20.4,9.3-20.4,17.5v8.3c0,7.7,4.5,14.3,11.1,17.4v8.8c-7.1,1.8-13.5,5.9-18.2,11.6
			c-4.9,6-7.6,13.6-7.6,21.4v1h67.9v-1C352.3,188.7,349.6,181.1,344.7,175.1z M319.4,113.5c9.8,0,16.3,9.3,16.3,15.5v1.9H301V129
			C301,121.7,308.9,113.5,319.4,113.5z M301,137.3v-4.4h34.6v4.4c0,9.5-7.8,17.3-17.3,17.3S301,146.8,301,137.3z M318.3,156.6
			c2.2,0,4.3-0.4,6.2-1.1v9.5v0.2c0,0.1,1.6,8.6-1.7,12.6c-1.1,1.4-2.7,2-4.7,2c-1.9,0-3.4-0.6-4.4-1.9c-3.3-4-1.7-12.7-1.7-12.7
			v-0.1v-9.6C314,156.2,316.1,156.6,318.3,156.6z M286.4,195.5c0.2-7,2.7-13.7,7.1-19.1c4.2-5.2,10.1-9,16.5-10.7
			c-0.3,2.4-1,9.6,2.2,13.6c1.4,1.7,3.4,2.6,5.9,2.6c2.6,0,4.7-0.9,6.2-2.7c3.3-4,2.6-11.1,2.2-13.5c6.5,1.7,12.3,5.5,16.5,10.7
			c4.4,5.4,6.9,12.2,7.1,19.1H286.4z"/>
		<path class="st0" d="M326.3,127c0-4.4-3.6-7.9-7.9-7.9c-4.4,0-7.9,3.6-7.9,7.9v1h15.9v-1H326.3z M312.4,126c0.5-2.8,2.9-5,5.9-5
			s5.4,2.2,5.9,5H312.4z"/>
	</g>
</g>
<g id="boycut">
	<path class="st0" d="M384.5,73.7c-4.6-5.4-10.9-9.2-17.9-10.9v-9.1c6.5-3.1,11.1-9.7,11.1-17.4V28c0-3.7-1.9-8.1-5-11.5
		c-3.6-3.9-8.3-6-13.2-6c-11.6,0-20.3,9.2-20.3,17.5v8.3c0,7.7,4.5,14.3,11.1,17.4v8.8c-15,3.7-25.7,17.3-25.7,32.9v1h67.9v-1
		C392.3,87.4,389.5,79.7,384.5,73.7z M360.5,30h-4.3c-0.3-1.6-1.1-2.9-2.3-3.9c2.1-2.2,3.7-5,4.6-8.2c1,2.9,2.6,5.6,4.7,7.9
		C361.8,26.7,360.8,28.2,360.5,30z M344.3,29.3c-1,0.2-2.1,0.3-3.2,0.3V30l0,0v-1.9c0-0.9,0.1-1.8,0.3-2.7
		c6.5-0.6,11.3-5.4,11.8-11.8c1.3-0.4,2.7-0.7,4.1-0.9c-0.3,4.9-2.2,9.4-5.3,12.5c-0.6-0.2-1.2-0.3-1.9-0.3
		C347.4,24.8,345,26.7,344.3,29.3z M346.6,28.8l5.7,5.7c-0.6,0.4-1.4,0.6-2.1,0.6c-2.3,0-4.1-1.9-4.1-4.1
		C346,30.2,346.2,29.4,346.6,28.8z M353.7,33.1l-5.7-5.7c0.6-0.4,1.4-0.6,2.1-0.6c2.3,0,4.1,1.9,4.1,4.1
		C354.3,31.7,354.1,32.4,353.7,33.1z M363.1,28.5l5.8,5.8c-0.7,0.5-1.5,0.8-2.4,0.8c-2.3,0-4.1-1.9-4.1-4.1
		C362.4,30,362.7,29.2,363.1,28.5z M370.2,32.8l-5.5-5.5c0.6-0.3,1.2-0.5,1.9-0.5c2.3,0,4.1,1.9,4.1,4.1
		C370.6,31.6,370.5,32.2,370.2,32.8z M366.5,24.8c-0.5,0-0.9,0.1-1.3,0.1c-3.4-3.3-5.4-7.8-5.7-12.5c1,0,2,0.1,3,0.3
		c0.5,6.6,5.9,11.8,12.7,12.3c0.3,1,0.5,2.1,0.5,3v1.9c-1.1-0.1-2.2-0.3-3.3-0.6C371.7,26.7,369.3,24.8,366.5,24.8z M374.5,23
		c-5.2-0.7-9.3-4.7-10-9.6C369.2,15.1,372.8,19,374.5,23z M351.1,14.3c-0.8,4.7-4.3,8.1-9,8.9C343.7,19.7,346.9,16.3,351.1,14.3z
		 M341.1,36.3v-4.4h3.1c0.5,2.9,3,5.1,6,5.1s5.5-2.2,6-5.1h4.3c0.5,2.9,3,5.1,6,5.1s5.5-2.2,6-5.1h3.2v4.4c0,9.5-7.8,17.3-17.3,17.3
		C348.8,53.6,341.1,45.8,341.1,36.3z M358.4,55.6c2.2,0,4.3-0.4,6.2-1.1v9.1l-6.4,7.5l-6.1-7.5v-9.1
		C354.1,55.2,356.2,55.6,358.4,55.6z M326.4,94.5c0.4-14.2,10.2-26.4,23.9-30l7.9,9.8l8-9.5c6.5,1.6,12.4,5.1,16.7,10.2
		c4.6,5.4,7.2,12.3,7.4,19.5H326.4z"/>
</g>
<g id="bangs">
	<path class="st0" d="M206.3,62.4l-0.1,0.4v-9.1c6.5-3.1,11-9.8,10.9-17.4V28c0-3.7-1.9-8.1-5-11.5c-3.6-3.9-8.3-6-13.2-6
		c-11.6,0-20.3,9.2-20.3,17.5v8.3c0,7.7,4.6,14.4,11.1,17.4v8.7c-7.1,1.8-13.5,5.9-18.1,11.6c-4.9,6.1-7.6,13.6-7.6,21.4v1h67.9
		v-1.1C231.9,79.8,221.4,66.2,206.3,62.4z M215.2,28v8.3c0,0.1,0,0.3,0,0.4c-15.2-0.4-25.8-9.1-26.1-21.5c2.8-1.6,6.1-2.7,9.8-2.7
		C208.7,12.5,215.2,21.8,215.2,28z M180.6,28c0-4.1,2.5-8.5,6.5-11.5c-0.2,13.1-3.2,19.7-6.4,20.7c0-0.3,0-0.6,0-0.9L180.6,28
		L180.6,28z M180.9,39.3c4-1,6.9-6.9,7.8-16.1c1.4,3.5,3.8,6.6,7,9.1c5,3.9,11.8,6.1,19.3,6.4c-1.1,8.4-8.4,15-17.1,15
		C189.4,53.6,182.3,47.4,180.9,39.3z M197.9,55.6c2.2,0,4.3-0.4,6.3-1.1v9.1l-6.4,7.6l-6.1-7.6v-9C193.7,55.2,195.7,55.6,197.9,55.6
		z M166,94.3c0.2-6.9,2.7-13.7,7.1-19.1c4.3-5.3,10.1-9,16.7-10.8l8,9.8l8.3-9.8c13.7,3.6,23.4,15.8,23.8,29.9H166z"/>
</g>
<g id="flattop">
	<path class="st0" d="M184.7,175c-4.7-5.7-11-9.7-18-11.5v-8.8c6.4-3.1,10.9-9.7,10.9-17.3V136v-7v-18.9H139V129v6.9v1.4
		c0,7.7,4.6,14.4,11.2,17.5v8.6c-7.2,1.8-13.6,5.9-18.2,11.6c-4.9,6-7.6,13.6-7.6,21.4v1h67.9v-1C192.3,188.6,189.6,181,184.7,175z
		 M141,112h34.6v17v4.9h-2.7c-0.1-1.3-0.5-3.8-1.7-6.4c-1.6-3.3-5.2-7.4-12.6-7.4c-4.4,0-7.9,1.3-10.4,3.9c-3.3,3.3-4,7.9-4.2,9.9
		h-3V129C141,129,141,112,141,112z M141,137.3v-1.4h4.9v-1c0,0,0-5.7,3.7-9.5c2.2-2.2,5.2-3.3,9-3.3c12.2,0,12.4,12.3,12.4,12.8v1
		h4.6v1.4c0,9.5-7.8,17.3-17.3,17.3S141,146.8,141,137.3z M158.3,156.6c2.2,0,4.4-0.4,6.4-1.1v8.8c0,0,0,3.9-2.2,6.1
		c-1,1.1-2.5,1.6-4.2,1.6s-3.1-0.6-4.1-1.6c-2.1-2.2-2-6.1-2-6.1v-8.7C154.1,156.2,156.2,156.6,158.3,156.6z M126.4,195.3
		c0.2-6.9,2.7-13.7,7.1-19.1c4.3-5.3,10.2-9,16.7-10.8c0.1,1.6,0.6,4.3,2.5,6.3c1.3,1.5,3.2,2.2,5.5,2.2s4.1-0.7,5.7-2.2
		c1.9-1.9,2.5-4.7,2.7-6.2c6.5,1.7,12.4,5.5,16.6,10.7c4.4,5.4,6.9,12.1,7.1,19.1C190.3,195.3,126.4,195.3,126.4,195.3z"/>
</g>
<g id="women">
	<path class="st0" d="M46.2,62.5v-8.8c0.5-0.2,1-0.5,1.4-0.8c1.4,1.7,3.4,2.7,5.7,2.7c4,0,7.3-3.3,7.3-7.3c0-2.9-1.7-5.5-4.2-6.7
		c0.5-1.7,0.7-3.5,0.7-5.3V28c0-3.7-1.9-8.1-5-11.5c-3.6-3.9-8.3-6-13.2-6c-11.6,0-20.3,9.2-20.3,17.5v8.3c0,1.7,0.2,3.4,0.7,5
		c-2.9,1-5,3.8-5,6.9c0,4.1,3.3,7.4,7.4,7.4c2.4,0,4.5-1.1,5.9-3c0.7,0.4,1.4,0.8,2.1,1.2v8.7c-7.1,1.8-13.6,5.9-18.2,11.6
		C6.7,80.1,4,87.7,4,95.4v1h67.9H72v-1C72,79.7,61.3,66.3,46.2,62.5z M20.6,30.1c13-0.2,23.7-4.4,27.6-10.3c1.1,4.9,3.7,8.5,7,9.1
		v7.4c0,9.5-7.8,17.3-17.3,17.3s-17.3-7.8-17.3-17.3V30.1z M58.7,48.3c0,3-2.4,5.4-5.4,5.4c-1.6,0-3-0.7-4.1-1.8
		c2.9-2.1,5.2-5,6.5-8.4C57.5,44.4,58.7,46.3,58.7,48.3z M55.1,26.8c-2.6-0.9-4.8-4.9-5.3-9.8C52.8,19.9,54.7,23.6,55.1,26.8z
		 M38.9,12.5c3.4,0,6.4,1.1,8.8,2.8c0,0.3,0,0.6,0,0.8c-0.7,2.9-3.4,5.7-7.8,7.8c-5.2,2.6-12,4-19.3,4.1l0,0
		C20.6,20.7,28.5,12.5,38.9,12.5z M21.7,53.6c-3,0-5.4-2.4-5.4-5.4c0-2.3,1.5-4.3,3.6-5.1c1.3,3.3,3.4,6.2,6.1,8.3
		C24.9,52.8,23.4,53.6,21.7,53.6z M37.9,55.6c2.2,0,4.3-0.4,6.3-1.1v8.3l-6.4,1.4l-6.1-1.4v-8.2C33.7,55.2,35.7,55.6,37.9,55.6z
		 M44.2,64.8L43,69.9l-3.7-4L44.2,64.8z M36.1,65.8l-3.9,4l-0.7-5L36.1,65.8z M5.9,94.4c0.2-6.9,2.7-13.7,7.1-19.1
		c4.2-5.2,10-9,16.5-10.7l1.3,9.5l6.9-7.1l6.4,7l2.3-9.4C60,68.3,69.5,80.3,69.8,94.4H5.9z"/>
</g>
<g id="scarf">
	<g>
		<path class="st0" d="M301.2,70.2c1.2-2.9,1.8-6,1.8-9.3V26.6c0-4.7-2.4-10.3-6.4-14.6C292,7,286,4.2,279.8,4.3
			c-14.9,0-26,11.8-26,22.3v34.3c0,3.3,0.6,6.4,1.8,9.2c-7.1,6.5-11.2,15.7-11.2,25.3v1h67.9h0.1v-1
			C312.4,85.7,308.3,76.7,301.2,70.2z M255.7,26.6c0-9.6,10.3-20.4,24-20.4c12.8,0,21.3,12.3,21.3,20.4v34.3c0,3.4-0.8,6.7-2.1,9.6
			l-0.2,0.2c0,0,0,0,0.1,0c-3.7,7.6-11.4,12.8-20.4,12.9c-12.5,0-22.7-10.2-22.7-22.7V26.6z M246.4,94.4c0.3-8.5,3.9-16.5,10.1-22.4
			c4.1,8,12.3,13.5,21.9,13.5c9.5,0,17.8-5.4,21.9-13.4c6.1,5.8,9.7,13.8,10,22.3C310.3,94.4,246.4,94.4,246.4,94.4z"/>
		<path class="st0" d="M278.4,55.6c10.6,0,19.2-8.7,19.3-19.3V28c0-3.7-1.9-7.9-5.1-11.1c-3.6-3.6-8.3-5.6-13.2-5.6
			c-5.4,0-10.5,1.9-14.4,5.2c-3.8,3.2-5.9,7.4-5.9,11.5v8.3C259.1,47,267.8,55.6,278.4,55.6z M261.1,28c0-6.9,7.5-14.7,18.3-14.7
			c10,0,16.3,8.7,16.3,14.7v8.3c0,9.5-7.8,17.3-17.3,17.3s-17.3-7.8-17.3-17.3V28z"/>
	</g>
</g>
<g id="lib">
	<path class="st0" d="M144.3,74c-4.6-5.7-11-9.8-18.1-11.6v-0.8c10.4-3.6,17.4-13.2,17.4-24.3V26.2c0-4.9-2.6-10.7-6.7-15.2
		c-4.8-5.2-11-8-17.5-8c-15.4,0-27,12.2-27,23.2v11.1c0,11.1,6.9,20.7,17.3,24.3v0.8c-7.1,1.8-13.6,5.9-18.2,11.6
		C86.7,80,84,87.6,84,95.3v1h67.8v-1C151.8,87.6,149.2,80,144.3,74z M125.5,26.8L125.5,26.8c0.2-0.1,0.4-0.1,0.6-0.1
		c2.3,0,4.1,1.9,4.1,4.1s-1.9,4.1-4.1,4.1c-2.2,0-4.1-1.9-4.1-4.1C122,28.8,123.5,27.1,125.5,26.8L125.5,26.8z M135.3,29.8h-3.2
		c-0.1-0.4-0.2-0.8-0.3-1.2c1.1,0.1,2.3,0.3,3.5,0.3V29.8z M120.1,29.8h-4.4c-0.3-1.7-1.2-3.1-2.5-4c2.7-1.7,4.6-4.1,5.7-7.3
		c0.8,3,2.3,5.2,4.4,6.9C121.6,26.2,120.4,27.9,120.1,29.8z M113.8,30.8c0,2.2-1.9,4.1-4.1,4.1s-4.1-1.9-4.1-4.1s1.8-4.1,4.1-4.1
		C112,26.7,113.8,28.6,113.8,30.8z M103.7,29.8h-3v-0.9c1.1,0,2.2-0.1,3.3-0.2C103.8,29.1,103.7,29.4,103.7,29.8z M100.7,31.8h3
		c0.5,2.9,3,5.1,6,5.1c3.1,0,5.5-2.2,6-5.1h4.4c0.5,2.9,3,5.1,6,5.1c3.1,0,5.5-2.2,6-5.1h3.2v4.4c0,9.5-7.8,17.3-17.3,17.3
		s-17.3-7.8-17.3-17.3C100.7,36.2,100.7,31.8,100.7,31.8z M111.7,63.5v-9.1c2,0.7,4.1,1.1,6.3,1.1s4.3-0.4,6.2-1.1v9
		c0,0-0.1,2-0.9,4c-1.1,2.5-2.9,3.8-5.5,3.8c-1.7,0-3-0.5-4-1.5C111.6,67.5,111.7,63.6,111.7,63.5z M94.4,37.3V26.2
		c0-10,10.7-21.2,25-21.2c13.3,0,22.2,12.7,22.2,21.2v11.1c0,10-6.1,18.7-15.4,22.1v-5.8c6.5-3.1,11-9.8,11-17.4V27h-1
		c-2.2,0-4.1-0.2-5.8-0.5c-1.1-1.1-2.6-1.8-4.3-1.8c-0.1,0-0.1,0-0.2,0c-4.1-2.3-6-6.7-5.9-13.3h-2c-0.1,6.7-2.4,11.1-7.1,13.4
		c-0.4-0.1-0.8-0.1-1.2-0.1c-1.7,0-3.3,0.7-4.4,1.9c-1.7,0.3-3.6,0.4-5.6,0.4h-1v9.2c0,7.7,4.5,14.3,11,17.4v5.8
		C100.5,56,94.4,47.2,94.4,37.3z M85.9,94.3c0.2-6.9,2.7-13.7,7.1-19.1c4.3-5.3,10.2-9.1,16.7-10.8c0.1,1.5,0.6,4.6,2.7,6.7
		c1.4,1.4,3.2,2.1,5.4,2.1c6,0,8-5.4,8.3-8.8c6.5,1.7,12.4,5.5,16.6,10.8c4.4,5.4,6.9,12.1,7.1,19.1H85.9z"/>
</g>
<g id="beard">
	<g>
		<path class="st0" d="M87.2,163.5v-2.7c2-0.4,3.8-1.2,5.3-2.5c3.9-3.4,5.7-10,5.7-20.9V129c0-3.7-1.9-8.1-5-11.5
			c-3.6-3.9-8.3-6-13.2-6c-11.6,0-20.3,9.2-20.3,17.5v8.3c0,10.9,1.8,17.5,5.7,20.9c1.6,1.4,3.4,2.1,5.4,2.6v2.7
			C55.6,167.2,45,180.7,45,196.4v1h67.9h0.1v-1C113,180.7,102.3,167.3,87.2,163.5z M80.1,113.5c4.3,0,8.5,1.9,11.7,5.4
			c2.8,3,4.5,6.9,4.5,10.1v5.9l-2.7,0.1v0.9c-0.2,3.1-2.3,5.5-5.1,5.9c-0.2-0.6-0.7-1.4-1.5-2.2c-1.2-1.3-3.7-2.8-8-2.6h-0.2
			c-4.3-0.2-6.7,1.3-8,2.6c-0.8,0.8-1.2,1.6-1.5,2.2c-2.7-0.4-4.9-2.7-5.1-5.7l-0.1-0.9h-0.9c-0.5,0-1,0-1.5,0V129
			C61.7,121.7,69.5,113.5,80.1,113.5z M61.7,137.3v-0.2c0.2,0,0.5,0,0.7,0c0.7,3.9,3.8,6.7,7.6,6.7h0.8L71,143c0,0,1-4.4,7.8-4.1
			h0.3c6.7-0.3,7.8,3.9,7.8,4.1l0.1,0.8h0.8c3.9,0,7.1-3,7.7-6.8h0.8v0.3c0,22-7.3,22-17.3,22S61.7,159.3,61.7,137.3z M79,161.3
			c2.1,0,4.2,0,6.2-0.2v2.3l-6.4,1.4l-6.1-1.4v-2.3C74.7,161.3,76.8,161.3,79,161.3z M85.4,165.4l-1.3,5.5l-4.1-4.4L85.4,165.4z
			 M77.4,166.5l-4.2,4.3l-0.7-5.4L77.4,166.5z M47,195.5c0.4-14.1,9.9-26.1,23.5-29.9l1.3,9.5l6.9-7.1l6.4,7l2.3-9.4
			c13.6,3.7,23.1,15.8,23.5,29.9H47z"/>
		<path class="st0" d="M85.2,145.6c0-2.1-3.2-3-6.2-3s-6.2,0.9-6.2,3c0,2.1,3.2,3,6.2,3S85.2,147.7,85.2,145.6z M74.7,145.6
			c0.3-0.3,1.7-1,4.2-1s3.9,0.7,4.2,1c-0.2,0.3-1.7,1-4.2,1S75,145.9,74.7,145.6z"/>
	</g>
</g>
<g id="braids">
	<path class="st0" d="M264.7,175c-2.1-2.6-4.5-4.8-7.2-6.6v-30.8l0,0c0-0.1,0-0.2,0-0.3V129c0-3.7-1.9-8.1-5-11.5
		c-3.6-3.9-8.3-6-13.2-6c-11.6,0-20.3,9.2-20.3,17.5v8.3c0,0.2,0,0.5,0,0.7l0,0l0.2,30.4c-2.7,1.8-5.1,4.1-7.2,6.6
		c-4.9,6-7.6,13.6-7.6,21.4v1h67.9v-1C272.3,188.6,269.6,181,264.7,175z M255.6,167.1c-1-0.6-2-1.1-3-1.6v-15.3
		c1.2-1.3,2.2-2.8,3-4.5V167.1z M230.1,163.4c-1.3,0.3-2.5,0.7-3.7,1.2v-12.2c1.1,0.9,2.4,1.7,3.7,2.3V163.4z M221,133h3.1
		c0.5,2.9,3,5,6,5s5.5-2.1,6-5h4.4c0.5,2.9,3,5,6,5c2.9,0,5.5-2.1,6-5h3.1v4.3c0,9.5-7.8,17.3-17.3,17.3s-17.3-7.8-17.3-17.3V133z
		 M221,129c0-0.9,0.1-1.8,0.3-2.7c6.5-0.6,11.4-5.4,11.9-11.9c1.3-0.4,2.7-0.7,4.2-0.9c0,0.1,0,0.1,0,0.2c-0.4,4.9-2.8,9.6-5.3,12.4
		c-0.6-0.2-1.3-0.3-2-0.3c-2.9,0-5.2,1.9-5.9,4.5c-1,0.2-2.1,0.3-3.2,0.3C221,130.6,221,129,221,129z M255.6,129v1.9
		c-1.1-0.1-2.1-0.3-3.2-0.6c-0.7-2.6-3-4.5-5.9-4.5c-0.5,0-1,0.1-1.4,0.2c-3.4-3.3-5.4-7.8-5.6-12.5c1,0,2,0.1,2.9,0.3
		c0.5,6.5,5.9,11.7,12.8,12.2C255.4,127.1,255.6,128.1,255.6,129z M240.5,131h-4.3c-0.2-1.6-1.1-3-2.3-3.9c2-2.4,3.6-5.3,4.6-8.4
		c1,3,2.6,5.8,4.8,8.1C241.7,127.7,240.7,129.2,240.5,131z M226.6,129.8l5.6,5.6c-0.6,0.4-1.3,0.6-2.1,0.6c-2.2,0-4.1-1.9-4.1-4.1
		C226,131.2,226.2,130.5,226.6,129.8z M233.6,134l-5.6-5.6c0.6-0.4,1.3-0.6,2.1-0.6c2.3,0,4.1,1.9,4.1,4.1
		C234.2,132.7,234,133.4,233.6,134z M250.2,133.7l-5.5-5.5c0.5-0.3,1.1-0.4,1.8-0.4c2.2,0,4.1,1.9,4.1,4.1
		C250.6,132.5,250.4,133.1,250.2,133.7z M243.2,129.5l5.7,5.7c-0.7,0.5-1.5,0.8-2.4,0.8c-2.2,0-4.1-1.9-4.1-4.1
		C242.4,131,242.7,130.2,243.2,129.5z M232.1,155.5c2,0.7,4,1.1,6.2,1.1s4.3-0.4,6.3-1.1v9.5c-0.1,0.7-1.3,7.8-6.4,7.8
		c-5.1,0-6-7.2-6.1-7.8V155.5z M246.6,154.7c1.4-0.7,2.8-1.5,4-2.5v12.5c-1.3-0.5-2.6-0.9-4-1.3V154.7z M254.5,124.1
		c-5.3-0.7-9.4-4.7-10.1-9.7C249.2,116.1,252.8,120.1,254.5,124.1z M231.1,115.3c-0.8,4.6-4.3,8.1-9,8.9
		C223.7,120.6,226.9,117.3,231.1,115.3z M221,145.8c0.9,1.8,2,3.4,3.4,4.9v14.8c-1.2,0.5-2.3,1.1-3.4,1.8V145.8z M206.4,195.3
		c0.2-6.9,2.7-13.7,7.1-19.1c4.2-5.3,10.1-9,16.6-10.8c0.4,3.4,2.5,9.3,8.1,9.3c5.5,0,7.8-5.9,8.3-9.3c6.5,1.8,12.5,5.5,16.7,10.8
		c4.4,5.4,6.9,12.1,7.1,19.1C270.3,195.3,206.4,195.3,206.4,195.3z"/>
</g>
</svg>
