<?xml version="1.0" encoding="utf-8"?>
<!-- Generator: Adobe Illustrator 19.1.0, SVG Export Plug-In . SVG Version: 6.00 Build 0)  -->
<svg version="1.1" id="Layer_1" xmlns="http://www.w3.org/2000/svg" xmlns:xlink="http://www.w3.org/1999/xlink" x="0px" y="0px"
	 viewBox="0 0 741.6 93.2" style="enable-background:new 0 0 741.6 93.2;" xml:space="preserve">
<style type="text/css">
	.st0{fill:#FFFFFF;}
</style>
<path class="st0" d="M83.8,34.1c-1.5,0.3-6.2-0.1-8.8-0.2c-0.6,0-0.5,0-1.1,0c-3.1,0.1-8.4,0.5-9.8,0c-0.4-0.2-0.5-0.5,0-0.6
	l0.9-0.4c1.9-0.5,6.1-2,7.9-2.3c0.5-0.1,1.5-0.3,2.2-0.2c3,0.3,7.9,2.4,8.8,2.9C84.1,33.5,84.1,34,83.8,34.1 M80.8,37.9
	c0,1.2-2.8,0.1-6.6,0.2c-3.8,0.1-7,0.5-6.9,0c0.2-0.9-0.2-1.6-0.5-2.4v-0.2c-0.2-0.6,4.2,0.6,7.2,0.4c3.9-0.2,7.4-0.9,7.4-0.2
	S80.8,37,80.8,37.9 M73.4,26l0-0.1c0-0.4,0.9-1.2,1.1-0.4c0.2,0.7,0.7,4,0.6,4c-0.4,0-2.1,0.5-2.1-0.1C73,28.6,73.4,26.2,73.4,26
	 M0,1v88.2h5.3c0.3-4.1,2.6-24,2.4-31.1C7.6,49.5,7,41.5,7.5,40.5c1-2.1,11.8-0.8,11.8-0.8s-4.1,13-2.2,20.8
	c0.4,1.5,0.6,2.7,0.9,3.8c1.4-7.2,2.7-12.8,1.8-22.5c-1.1-10.7-2.3-17.9-1.1-18.2c1.6-0.4,3.1-1,3.1-1s1.2-6.3,2.3-4.3
	c1.1,2,1.8,4,1.8,4s2-0.4,3.5-0.1c1.6,0.3-2.7,15.1-1.7,26.9c0.2,2.4,0.6,5.7,1,7.7c0.3-1.1,0.8-2.1,1-3.2
	c1.7-9.5-0.4-19.5,1.2-19.3c2.2,0.2,2.2,1.6,7.1,2.1c5.6,0.6,6.3-0.4,6,0.7c-0.4,1.3-2.7,6.1-1.1,14.5c0.2,1.1,0.7,1.9,1,3
	c0.9-3.7,1.8-7.4,2.1-9.9c0.9-6.5-2.4-14.9-1.4-14.8c0.6,0,2-0.2,2-0.2s-0.3-1.7,0-1.7c0.6,0,2.3-0.2,2.3-0.2s0.5-2.5,0.8-2.5
	c0.4,0,3.7-0.2,4.2-0.2c0.4,0,0.5,2.2,0.5,2.2s2.1,0,2.4,0c0.4,0,0.4,1.8,0.4,1.8s1.6-0.2,2.5-0.2c1.3,0.1-2.2,2.9-1.8,17.5
	c0.2,6.6,0.7,10.6,1.8,13.7c0.7-2.1,1.1-4.8,1.4-7.6c0.2-2.2-1.5-6.6,0-6.1c2.6,0.7,6.3,3.2,10.7,4.2c-0.6-2.3-1.4-8.4-2-10.1
	c-0.6-1.9,2.6-0.7,4.2-0.7c1.6,0,5.2-1,4.2,0.6c-1.3,2.2-2.5,8.3-3.2,10.5c0.8-0.1,1.5-0.3,3.3-0.4c2.8-0.2-0.2,4.6-0.8,11.9
	c-0.3,4.1,5,21.7,5.1,26.6h5.7V1H0z M60.7,71.7l0.1-0.4c0,0-0.2,0-1,0c-4.1,0-16.9,0.7-16.8,5.2c0.1,3.3,5.2,9.7,12.6,12.6h1
	c-2.2-3.1-5.3-8.4-5.2-10.4C51.9,73.7,60.7,71.7,60.7,71.7 M37.6,87.7c-2.2,1.1-4.2,1.5-4.2,1.5h4h7.5c0,0,0.8-0.5,1.4-1.5
	c1.1-3.2-7.4-5.9-8.7-10.4c-1-3.8,2.8-5.5,5.5-6.1c2.8-0.6,5.6-0.4,5.6-0.4s-2-1.8-7.6-2c-5.7-0.2-9.4,2.7-10.5,4.6
	c-1.5,2.5-0.7,5.1,1.8,6.9c3.5,2.6,7.1,5.5,6,7C38,87.3,37.8,87.6,37.6,87.7"/>
<g>
	<path class="st0" d="M473,81.9c1.4,1.8,3.2,2.7,5.7,2.7c3.3,0,5.3-1.8,5.3-4.7c0-2.3-1.2-3.1-3.6-4.1c-1.8-0.8-2.9-1.2-2.9-2.4
		c0-1.1,1.1-2.1,2.6-2.1c1.5,0,2.7,0.6,3.5,1.8l1.5-1.8c-1.3-1.4-3-2.1-4.9-2.1c-3.1,0-5.2,2-5.2,4.5c0,2.1,1.2,2.9,3.4,4
		c2,1,3.1,1.2,3.1,2.6c0,1.3-1.1,2.3-2.9,2.3c-1.6,0-3-0.9-4-2.5L473,81.9z"/>
	<path class="st0" d="M471.2,77.2c0-0.4,0-0.8,0-1.1c0-4.5-2.3-7-6.3-7c-4.4,0-7.7,3.5-7.7,8.3c0,4.4,2.7,7.2,7,7.2
		c2.4,0,4.4-1.1,6-3.2l-1.7-1.4c-1.3,1.7-2.7,2.5-4.4,2.5c-2.7,0-4.4-1.9-4.4-5v-0.3H471.2z M468.8,75.2h-8.9c0.5-2.5,2.5-4.1,5-4.1
		C467.3,71.1,468.8,72.6,468.8,75.2"/>
	<path class="st0" d="M446.1,82.1c-2.6,0-4.5-2-4.5-4.9c0-3.4,2.2-5.9,5.4-5.9c2.4,0,4.1,1.9,4.1,4.8
		C451.1,79.6,448.8,82.1,446.1,82.1 M452,69.6l-0.4,2.8c-0.9-2.2-2.7-3.3-5.2-3.3c-4.2,0-7.4,3.5-7.4,8.2c0,4.1,2.6,7,6.2,7
		c2.2,0,3.9-0.9,5.2-2.7l-0.3,2.2c-0.3,3.3-2,5.1-4.5,5.1c-2.8,0-4.4-1.5-4.5-4.1l-2.5,0.3c0.1,3.5,2.5,5.9,6.4,5.9
		c3.1,0,5-0.9,6.4-3.1c1.1-1.7,1.2-4,1.6-6.8l1.4-11.4H452z"/>
	<path class="st0" d="M436.3,77.2c0-0.4,0-0.8,0-1.1c0-4.5-2.3-7-6.3-7c-4.4,0-7.7,3.5-7.7,8.3c0,4.4,2.7,7.2,7,7.2
		c2.4,0,4.4-1.1,6-3.2l-1.7-1.4c-1.3,1.7-2.7,2.5-4.4,2.5c-2.7,0-4.4-1.9-4.4-5v-0.3H436.3z M434,75.2h-8.9c0.5-2.5,2.5-4.1,5-4.1
		S433.9,72.6,434,75.2"/>
	<polygon class="st0" points="417.4,84 420.6,59.6 418.1,59.6 414.9,84 	"/>
	<polygon class="st0" points="409.5,84 412.7,59.6 410.2,59.6 407,84 	"/>
	<path class="st0" d="M396.6,71.1c2.9,0,4.9,2.2,4.9,5.3c0,3.6-2.3,6.2-5.4,6.2c-2.9,0-4.9-2.1-4.9-5.3
		C391.2,73.7,393.5,71.1,396.6,71.1 M388.6,77.4c0,4.3,2.8,7.2,7.2,7.2c4.7,0,8.1-3.4,8.1-8.6c0-3.8-2.9-6.9-7.2-6.9
		C392.1,69.1,388.6,72.7,388.6,77.4"/>
	<path class="st0" d="M386.7,65.8l0.7-2.8c-2.2-1.7-4.5-2.5-7.4-2.5c-3.3,0-6.2,1.2-8.4,3.4c-2.4,2.4-3.8,5.8-3.8,9.5
		c0,6.7,4.5,11.2,10.9,11.2c2.2,0,4.2-0.5,6.1-1.4l0.6-3.2c-2.2,1.4-4.1,2.2-6.2,2.2c-5.2,0-8.5-3.4-8.5-8.9c0-2.9,1-5.5,2.9-7.5
		c1.6-1.7,3.9-2.7,6.5-2.7C382.5,62.9,384.6,63.9,386.7,65.8"/>
	<path class="st0" d="M355,77.2c0-0.4,0-0.8,0-1.1c0-4.5-2.3-7-6.3-7c-4.4,0-7.7,3.5-7.7,8.3c0,4.4,2.7,7.2,7,7.2
		c2.4,0,4.4-1.1,6-3.2l-1.7-1.4c-1.3,1.7-2.7,2.5-4.4,2.5c-2.7,0-4.4-1.9-4.4-5v-0.3H355z M352.6,75.2h-8.9c0.6-2.5,2.5-4.1,5-4.1
		C351.1,71.1,352.6,72.6,352.6,75.2"/>
	<polygon class="st0" points="336.1,84 339.3,59.6 336.8,59.6 333.6,84 	"/>
	<polygon class="st0" points="324.7,84 327.2,84 328.8,71.7 332,71.7 332.3,69.6 329.1,69.6 329.9,63.8 327.3,63.8 326.6,69.6 
		323.9,69.6 323.7,71.7 326.3,71.7 	"/>
	<polygon class="st0" points="315.3,84 317.8,84 319.4,71.7 322.6,71.7 322.9,69.6 319.7,69.6 320.5,63.8 318,63.8 317.2,69.6 
		314.6,69.6 314.3,71.7 316.9,71.7 	"/>
	<path class="st0" d="M303.2,82.3c-2.6,0-4.5-2-4.5-5c0-3.5,2.2-6,5.4-6c2.4,0,4.1,1.9,4.1,4.9C308.2,79.8,305.9,82.3,303.2,82.3
		 M309.2,69.6l-0.4,2.9c-1-2.3-2.7-3.4-5.2-3.4c-4.2,0-7.4,3.4-7.4,8.2c0,4.4,2.6,7.2,6.2,7.2c2.2,0,3.9-0.9,5.2-2.7l-0.4,2.2h2.5
		l1.9-14.4H309.2z"/>
	<path class="st0" d="M293.5,77.2c0-0.4,0-0.8,0-1.1c0-4.5-2.3-7-6.3-7c-4.4,0-7.7,3.5-7.7,8.3c0,4.4,2.7,7.2,7,7.2
		c2.4,0,4.4-1.1,6-3.2l-1.7-1.4c-1.3,1.7-2.7,2.5-4.4,2.5c-2.7,0-4.4-1.9-4.4-5v-0.3H293.5z M291.1,75.2h-8.9c0.5-2.5,2.5-4.1,5-4.1
		C289.6,71.1,291.1,72.6,291.1,75.2"/>
	<path class="st0" d="M262.2,79.8c1.3,3.2,3.7,4.8,6.9,4.8c4.5,0,7.3-2.7,7.3-6.9c0-3.1-1.4-4.6-4.3-6.2c-2.6-1.4-4.4-2.1-4.4-4.7
		c0-2.2,1.6-3.9,4.1-3.9c1.8,0,3.1,0.9,4.1,2.9l2-1.7c-1.5-2.4-3.5-3.6-6.1-3.6c-4.1,0-6.8,2.8-6.8,6.7c0,3.1,1.8,4.5,5.2,6.3
		c2.3,1.2,3.6,2,3.6,4.2c0,2.7-1.8,4.4-4.6,4.4c-2.3,0-3.6-1.3-4.9-4.1L262.2,79.8z"/>
	<path class="st0" d="M251.1,77.2c0-0.4,0-0.8,0-1.1c0-4.5-2.3-7-6.3-7c-4.4,0-7.7,3.5-7.7,8.3c0,4.4,2.7,7.2,7,7.2
		c2.4,0,4.4-1.1,6-3.2l-1.7-1.4c-1.3,1.7-2.7,2.5-4.4,2.5c-2.7,0-4.4-1.9-4.4-5v-0.3H251.1z M248.8,75.2h-8.9c0.5-2.5,2.5-4.1,5-4.1
		C247.2,71.1,248.7,72.6,248.8,75.2"/>
	<path class="st0" d="M219.9,84h2.4l1-7.3c0.5-3.6,2.2-5.5,4.8-5.5c2,0,3.1,0.9,3.1,2.6c0,0.3-0.1,0.8-0.1,1.3l-1.1,8.8h2.5l1.2-9.1
		c0.1-0.7,0.1-1.2,0.1-1.6c0-2.6-1.7-4.2-4.5-4.2c-2.1,0-3.9,1-5.4,2.9l1.7-12.3h-2.5L219.9,84z"/>
	<polygon class="st0" points="211.1,84 213.7,84 215.3,71.7 218.4,71.7 218.7,69.6 215.6,69.6 216.3,63.8 213.8,63.8 213,69.6 
		210.4,69.6 210.1,71.7 212.8,71.7 	"/>
	<path class="st0" d="M192,84h2.5l1.6-12.3h3.1l0.3-2.1h-3.2l0.6-4.5c0.3-2.4,0.6-3.6,2-3.6c0.5,0,1,0.2,1.7,0.5l0.4-2.2
		c-0.8-0.4-1.5-0.5-2.3-0.5c-3,0-3.9,1.9-4.4,6l-0.5,4.2h-2.7l-0.3,2.1h2.6L192,84z"/>
	<path class="st0" d="M180.7,71.1c2.9,0,4.9,2.2,4.9,5.3c0,3.6-2.3,6.2-5.4,6.2c-2.9,0-4.9-2.1-4.9-5.3
		C175.2,73.7,177.6,71.1,180.7,71.1 M172.7,77.4c0,4.3,2.8,7.2,7.2,7.2c4.7,0,8.1-3.4,8.1-8.6c0-3.8-2.9-6.9-7.2-6.9
		C176.2,69.1,172.7,72.7,172.7,77.4"/>
	<path class="st0" d="M160.8,77.2c0-0.4,0-0.8,0-1.1c0-4.5-2.3-7-6.3-7c-4.4,0-7.7,3.5-7.7,8.3c0,4.4,2.7,7.2,7,7.2
		c2.4,0,4.4-1.1,6-3.2l-1.7-1.4c-1.3,1.7-2.7,2.5-4.4,2.5c-2.7,0-4.4-1.9-4.4-5v-0.3H160.8z M158.5,75.2h-8.9c0.5-2.5,2.5-4.1,5-4.1
		C157,71.1,158.4,72.6,158.5,75.2"/>
	<path class="st0" d="M129.6,84h2.4l1-7.3c0.5-3.6,2.2-5.5,4.8-5.5c2,0,3.1,0.9,3.1,2.6c0,0.3-0.1,0.8-0.1,1.3l-1.1,8.8h2.5l1.2-9.1
		c0.1-0.7,0.1-1.2,0.1-1.6c0-2.6-1.7-4.2-4.5-4.2c-2.1,0-3.8,0.9-5.4,2.9l0.3-2.3h-2.4L129.6,84z"/>
	<path class="st0" d="M124.1,71.7c0,2.9-1.1,5.7-3.1,7.6c-1.9,1.8-4.3,2.8-7,2.8c-5.3,0-8.7-3.5-8.7-8.7c0-2.9,1.1-5.6,3.2-7.7
		c1.8-1.8,4.2-2.8,6.9-2.8C120.6,62.9,124.1,66.5,124.1,71.7 M115.4,60.5c-3.5,0-6.7,1.2-9,3.4c-2.4,2.3-3.8,5.7-3.8,9.5
		c0,6.7,4.5,11.2,11.2,11.2c3.6,0,6.9-1.3,9.2-3.5c2.5-2.4,3.9-5.7,3.9-9.4C126.9,64.9,122.4,60.5,115.4,60.5"/>
</g>
<g>
	<path class="st0" d="M125.2,10.1l-4.5,2.7c-0.9-1.5-1.7-2.4-2.4-2.9c-0.8-0.5-1.8-0.8-3.1-0.8c-1.6,0-2.8,0.4-3.9,1.3
		c-1,0.9-1.5,1.9-1.5,3.3c0,1.8,1.3,3.3,4,4.4l3.7,1.5c3,1.2,5.2,2.7,6.6,4.4c1.4,1.7,2.1,3.9,2.1,6.4c0,3.4-1.1,6.2-3.4,8.4
		c-2.3,2.2-5.1,3.4-8.5,3.4c-3.2,0-5.9-1-7.9-2.9c-2.1-1.9-3.3-4.6-3.9-8l5.7-1.2c0.3,2.2,0.7,3.7,1.3,4.5c1.2,1.6,2.8,2.4,5,2.4
		c1.7,0,3.2-0.6,4.3-1.7c1.2-1.2,1.7-2.6,1.7-4.4c0-0.7-0.1-1.4-0.3-2c-0.2-0.6-0.5-1.2-0.9-1.7c-0.4-0.5-1-1-1.6-1.4
		c-0.7-0.4-1.5-0.9-2.4-1.3l-3.6-1.5c-5.1-2.1-7.6-5.3-7.6-9.4c0-2.8,1.1-5.1,3.2-7c2.1-1.9,4.8-2.8,7.9-2.8
		C119.5,3.9,122.8,6,125.2,10.1"/>
	<polygon class="st0" points="152,9.9 137.2,9.9 137.2,18.8 151.6,18.8 151.6,24 137.2,24 137.2,36.4 152,36.4 152,41.6 131.6,41.6 
		131.6,4.6 152,4.6 	"/>
	<path class="st0" d="M178.8,27.4l-5.5-12.6l-5.7,12.6H178.8z M181,32.6h-15.8l-4.1,9h-6l18.3-39.3L191,41.6h-6.1L181,32.6z"/>
	<polygon class="st0" points="202.3,9.9 202.3,41.6 196.7,41.6 196.7,9.9 188.2,9.9 188.2,4.6 210.8,4.6 210.8,9.9 	"/>
	<polygon class="st0" points="228.7,9.9 228.7,41.6 223.1,41.6 223.1,9.9 214.6,9.9 214.6,4.6 237.2,4.6 237.2,9.9 	"/>
	<polygon class="st0" points="247.8,4.6 247.8,36.4 258.6,36.4 258.6,41.6 242.2,41.6 242.2,4.6 	"/>
	<polygon class="st0" points="284.3,9.9 269.5,9.9 269.5,18.8 283.9,18.8 283.9,24 269.5,24 269.5,36.4 284.3,36.4 284.3,41.6 
		263.9,41.6 263.9,4.6 284.3,4.6 	"/>
	<path class="st0" d="M334.1,6.6v6.6c-3.2-2.7-6.6-4.1-10-4.1c-3.8,0-7,1.4-9.6,4.1c-2.6,2.7-3.9,6-3.9,10c0,3.9,1.3,7.2,3.9,9.8
		c2.6,2.7,5.8,4,9.6,4c2,0,3.6-0.3,5-1c0.8-0.3,1.6-0.8,2.4-1.3c0.8-0.5,1.7-1.2,2.6-2v6.7c-3.2,1.8-6.5,2.7-10.1,2.7
		c-5.3,0-9.8-1.8-13.5-5.5c-3.7-3.7-5.6-8.2-5.6-13.5c0-4.7,1.6-8.9,4.7-12.6c3.8-4.5,8.8-6.8,14.9-6.8C327.8,3.9,331,4.8,334.1,6.6
		"/>
	<polygon class="st0" points="361.5,9.9 346.7,9.9 346.7,18.8 361.1,18.8 361.1,24 346.7,24 346.7,36.4 361.5,36.4 361.5,41.6 
		341.1,41.6 341.1,4.6 361.5,4.6 	"/>
	<polygon class="st0" points="368.9,41.6 368.9,2.1 395.8,30.3 395.8,4.6 401.4,4.6 401.4,43.9 374.5,15.7 374.5,41.6 	"/>
	<polygon class="st0" points="420.5,9.9 420.5,41.6 414.9,41.6 414.9,9.9 406.4,9.9 406.4,4.6 429,4.6 429,9.9 	"/>
	<path class="st0" d="M439.5,21.6h1.8c5.3,0,7.9-2,7.9-6.1c0-3.8-2.6-5.7-7.7-5.7h-2V21.6z M446.5,25.9l11.4,15.8h-6.8l-10.6-15.1
		h-1v15.1h-5.6v-37h6.5c4.9,0,8.4,0.9,10.6,2.8c2.4,2,3.6,4.7,3.6,8.1c0,2.6-0.8,4.9-2.3,6.8C450.9,24.1,448.9,25.3,446.5,25.9"/>
	<path class="st0" d="M482.9,27.4l-5.5-12.6l-5.7,12.6H482.9z M485.2,32.6h-15.8l-4.1,9h-6l18.3-39.3l17.7,39.3h-6.1L485.2,32.6z"/>
	<polygon class="st0" points="505.4,4.6 505.4,36.4 516.2,36.4 516.2,41.6 499.8,41.6 499.8,4.6 	"/>
	<path class="st0" d="M564,6.6v6.6c-3.2-2.7-6.6-4.1-10-4.1c-3.8,0-7,1.4-9.6,4.1c-2.6,2.7-3.9,6-3.9,10c0,3.9,1.3,7.2,3.9,9.8
		c2.6,2.7,5.8,4,9.6,4c2,0,3.6-0.3,5-1c0.8-0.3,1.6-0.8,2.4-1.3c0.8-0.5,1.7-1.2,2.6-2v6.7c-3.2,1.8-6.5,2.7-10.1,2.7
		c-5.3,0-9.8-1.8-13.5-5.5c-3.7-3.7-5.6-8.2-5.6-13.5c0-4.7,1.6-8.9,4.7-12.6c3.8-4.5,8.8-6.8,14.9-6.8C557.7,3.9,560.9,4.8,564,6.6
		"/>
	<path class="st0" d="M573.6,23c0,4.1,1.4,7.4,4.1,10.1c2.7,2.6,5.9,3.9,9.5,3.9c3.9,0,7.1-1.3,9.8-4c2.7-2.7,4-6,4-9.9
		c0-3.9-1.3-7.2-4-9.9c-2.6-2.7-5.9-4-9.7-4c-3.9,0-7.1,1.3-9.7,4C574.9,15.9,573.6,19.1,573.6,23 M568,23c0-5.2,1.9-9.7,5.7-13.4
		c3.8-3.7,8.4-5.6,13.7-5.6c5.3,0,9.8,1.9,13.6,5.7c3.8,3.8,5.7,8.3,5.7,13.6c0,5.3-1.9,9.8-5.7,13.5c-3.8,3.7-8.4,5.6-13.8,5.6
		c-4.8,0-9.1-1.7-12.9-5C570,33.7,568,28.9,568,23"/>
	<polygon class="st0" points="617.2,4.6 617.2,36.4 628.1,36.4 628.1,41.6 611.7,41.6 611.7,4.6 	"/>
	<polygon class="st0" points="639,4.6 639,36.4 649.9,36.4 649.9,41.6 633.4,41.6 633.4,4.6 	"/>
	<polygon class="st0" points="675.5,9.9 660.7,9.9 660.7,18.8 675.1,18.8 675.1,24 660.7,24 660.7,36.4 675.5,36.4 675.5,41.6 
		655.1,41.6 655.1,4.6 675.5,4.6 	"/>
	<path class="st0" d="M700.9,22.4h15.3v1.2c0,2.8-0.3,5.2-1,7.4c-0.6,2-1.7,3.8-3.2,5.6c-3.4,3.9-7.8,5.8-13.1,5.8
		c-5.2,0-9.6-1.9-13.3-5.6c-3.7-3.8-5.5-8.3-5.5-13.5c0-5.4,1.9-9.9,5.6-13.7c3.8-3.7,8.3-5.6,13.7-5.6c2.9,0,5.6,0.6,8.1,1.8
		c2.4,1.2,4.8,3.1,7.1,5.7l-4,3.8c-3-4-6.7-6.1-11.1-6.1c-3.9,0-7.2,1.4-9.8,4.1c-2.7,2.6-4,6-4,10c0,4.1,1.5,7.5,4.4,10.2
		c2.8,2.5,5.8,3.7,9,3.7c2.8,0,5.2-0.9,7.4-2.8c2.2-1.9,3.4-4.1,3.7-6.7h-9.2V22.4z"/>
	<polygon class="st0" points="741.6,9.9 726.8,9.9 726.8,18.8 741.2,18.8 741.2,24 726.8,24 726.8,36.4 741.6,36.4 741.6,41.6 
		721.2,41.6 721.2,4.6 741.6,4.6 	"/>
</g>
</svg>
