<?xml version="1.0" encoding="utf-8"?>
<!-- Generator: Adobe Illustrator 19.1.0, SVG Export Plug-In . SVG Version: 6.00 Build 0)  -->
<svg version="1.1" id="Layer_1" xmlns="http://www.w3.org/2000/svg" xmlns:xlink="http://www.w3.org/1999/xlink" x="0px" y="0px"
	 viewBox="0 0 297.6 38.1" style="enable-background:new 0 0 297.6 38.1;" xml:space="preserve">
<style type="text/css">
	.st0{fill:#FFFFFF;}
</style>
<path class="st0" d="M33.6,13.3c-0.6,0.1-2.5,0-3.5-0.1c-0.2,0-0.2,0-0.4,0c-1.2,0-3.4,0.2-3.9,0c-0.2-0.1-0.2-0.2,0-0.2l0.4-0.1
	c0.8-0.2,2.4-0.8,3.2-0.9c0.2,0,0.6-0.1,0.9-0.1c1.2,0.1,3.2,1,3.5,1.2C33.8,13,33.7,13.3,33.6,13.3 M32.4,14.8c0,0.5-1.1,0-2.7,0.1
	c-1.5,0-2.8,0.2-2.8,0c0.1-0.4-0.1-0.7-0.2-1v-0.1c-0.1-0.2,1.7,0.2,2.9,0.2c1.6-0.1,3-0.4,3-0.1S32.4,14.4,32.4,14.8 M29.5,10
	L29.5,10c0-0.2,0.4-0.5,0.5-0.2c0.1,0.3,0.3,1.6,0.2,1.6c-0.2,0-0.9,0.2-0.9-0.1C29.3,11.1,29.5,10.1,29.5,10 M0,0v35.4h2.1
	c0.1-1.6,1-9.6,1-12.5c-0.1-3.5-0.3-6.6-0.1-7c0.4-0.9,4.7-0.3,4.7-0.3s-1.6,5.2-0.9,8.3C7,24.5,7.1,25,7.2,25.4
	c0.5-2.9,1.1-5.2,0.7-9C7.5,12.1,7,9.2,7.5,9.1c0.6-0.2,1.2-0.4,1.2-0.4S9.2,6.2,9.6,7c0.4,0.8,0.7,1.6,0.7,1.6s0.8-0.2,1.4,0
	c0.6,0.1-1.1,6.1-0.7,10.8c0.1,1,0.2,2.3,0.4,3.1c0.1-0.5,0.3-0.8,0.4-1.3c0.7-3.8-0.2-7.8,0.5-7.8c0.9,0.1,0.9,0.6,2.8,0.8
	c2.2,0.3,2.5-0.2,2.4,0.3c-0.2,0.5-1.1,2.5-0.4,5.8c0.1,0.5,0.3,0.8,0.4,1.2c0.4-1.5,0.7-3,0.8-4c0.4-2.6-0.9-6-0.6-5.9
	c0.2,0,0.8-0.1,0.8-0.1s-0.1-0.7,0-0.7c0.2,0,0.9-0.1,0.9-0.1s0.2-1,0.3-1c0.2,0,1.5-0.1,1.7-0.1c0.2,0,0.2,0.9,0.2,0.9s0.8,0,1,0
	c0.2,0,0.2,0.7,0.2,0.7s0.6-0.1,1-0.1c0.5,0-0.9,1.2-0.7,7c0.1,2.6,0.3,4.2,0.7,5.5c0.3-0.8,0.5-1.9,0.6-3.1c0.1-0.9-0.6-2.6,0-2.5
	c1,0.3,2.5,1.3,4.3,1.7c-0.2-0.9-0.6-3.4-0.8-4.1c-0.2-0.7,1-0.3,1.7-0.3c0.6,0,2.1-0.4,1.7,0.3c-0.5,0.9-1,3.3-1.3,4.2
	c0.3,0,0.6-0.1,1.3-0.2c1.1-0.1-0.1,1.8-0.3,4.8c-0.1,1.6,2,8.7,2.1,10.7h2.3V0H0z M24.3,28.4l0.1-0.1c0,0-0.1,0-0.4,0
	c-1.6,0-6.8,0.3-6.7,2.1c0,1.3,2.1,3.9,5.1,5.1h0.4c-0.9-1.2-2.1-3.4-2.1-4.2C20.8,29.1,24.3,28.4,24.3,28.4 M15.1,34.8
	c-0.9,0.4-1.7,0.6-1.7,0.6H15h3c0,0,0.3-0.2,0.6-0.6c0.5-1.3-3-2.4-3.5-4.2c-0.4-1.5,1.1-2.2,2.2-2.4c1.1-0.3,2.3-0.2,2.3-0.2
	s-0.8-0.7-3.1-0.8c-2.3-0.1-3.8,1.1-4.2,1.8c-0.6,1-0.3,2.1,0.7,2.8c1.4,1,2.9,2.2,2.4,2.8C15.3,34.6,15.2,34.7,15.1,34.8"/>
<g>
	<path class="st0" d="M50.2,3.7l-1.8,1.1c-0.3-0.6-0.7-1-1-1.2c-0.3-0.2-0.7-0.3-1.2-0.3c-0.6,0-1.1,0.2-1.5,0.5
		c-0.4,0.3-0.6,0.8-0.6,1.3c0,0.7,0.5,1.3,1.6,1.8l1.5,0.6c1.2,0.5,2.1,1.1,2.6,1.8c0.6,0.7,0.8,1.6,0.8,2.6c0,1.4-0.5,2.5-1.4,3.4
		c-0.9,0.9-2.1,1.3-3.4,1.3c-1.3,0-2.3-0.4-3.2-1.1c-0.8-0.8-1.3-1.8-1.5-3.2l2.3-0.5c0.1,0.9,0.3,1.5,0.5,1.8c0.5,0.6,1.1,1,2,1
		c0.7,0,1.3-0.2,1.7-0.7c0.5-0.5,0.7-1.1,0.7-1.8c0-0.3,0-0.6-0.1-0.8c-0.1-0.2-0.2-0.5-0.4-0.7c-0.2-0.2-0.4-0.4-0.7-0.6
		c-0.3-0.2-0.6-0.3-1-0.5l-1.4-0.6c-2-0.9-3-2.1-3-3.8c0-1.1,0.4-2,1.3-2.8c0.9-0.8,1.9-1.1,3.2-1.1C47.9,1.2,49.3,2,50.2,3.7"/>
	<polygon class="st0" points="61,3.6 55,3.6 55,7.1 60.8,7.1 60.8,9.2 55,9.2 55,14.2 61,14.2 61,16.3 52.8,16.3 52.8,1.5 61,1.5 	
		"/>
	<path class="st0" d="M71.7,10.6l-2.2-5l-2.3,5H71.7z M72.6,12.7h-6.4l-1.7,3.6h-2.4l7.3-15.8l7.1,15.8h-2.4L72.6,12.7z"/>
	<polygon class="st0" points="81.2,3.6 81.2,16.3 78.9,16.3 78.9,3.6 75.5,3.6 75.5,1.5 84.6,1.5 84.6,3.6 	"/>
	<polygon class="st0" points="91.8,3.6 91.8,16.3 89.5,16.3 89.5,3.6 86.1,3.6 86.1,1.5 95.2,1.5 95.2,3.6 	"/>
	<polygon class="st0" points="99.4,1.5 99.4,14.2 103.8,14.2 103.8,16.3 97.2,16.3 97.2,1.5 	"/>
	<polygon class="st0" points="114.1,3.6 108.1,3.6 108.1,7.1 113.9,7.1 113.9,9.2 108.1,9.2 108.1,14.2 114.1,14.2 114.1,16.3 
		105.9,16.3 105.9,1.5 114.1,1.5 	"/>
	<path class="st0" d="M134,2.3v2.6c-1.3-1.1-2.6-1.6-4-1.6c-1.5,0-2.8,0.5-3.9,1.6c-1,1.1-1.6,2.4-1.6,4c0,1.6,0.5,2.9,1.6,3.9
		c1.1,1.1,2.3,1.6,3.9,1.6c0.8,0,1.5-0.1,2-0.4c0.3-0.1,0.6-0.3,1-0.5c0.3-0.2,0.7-0.5,1-0.8v2.7c-1.3,0.7-2.6,1.1-4,1.1
		c-2.1,0-3.9-0.7-5.4-2.2c-1.5-1.5-2.2-3.3-2.2-5.4c0-1.9,0.6-3.6,1.9-5.1c1.5-1.8,3.5-2.7,6-2.7C131.5,1.2,132.8,1.5,134,2.3"/>
	<polygon class="st0" points="145.1,3.6 139.1,3.6 139.1,7.1 144.9,7.1 144.9,9.2 139.1,9.2 139.1,14.2 145.1,14.2 145.1,16.3 
		136.9,16.3 136.9,1.5 145.1,1.5 	"/>
	<polygon class="st0" points="148,16.3 148,0.5 158.8,11.8 158.8,1.5 161.1,1.5 161.1,17.2 150.2,5.9 150.2,16.3 	"/>
	<polygon class="st0" points="168.7,3.6 168.7,16.3 166.5,16.3 166.5,3.6 163,3.6 163,1.5 172.1,1.5 172.1,3.6 	"/>
	<path class="st0" d="M176.3,8.3h0.7c2.1,0,3.2-0.8,3.2-2.4c0-1.5-1-2.3-3.1-2.3h-0.8V8.3z M179.1,10l4.6,6.3H181l-4.2-6.1h-0.4v6.1
		h-2.2V1.5h2.6c2,0,3.4,0.4,4.2,1.1c1,0.8,1.4,1.9,1.4,3.2c0,1.1-0.3,2-0.9,2.7C180.9,9.3,180.1,9.8,179.1,10"/>
	<path class="st0" d="M193.7,10.6l-2.2-5l-2.3,5H193.7z M194.7,12.7h-6.4l-1.7,3.6h-2.4l7.3-15.8l7.1,15.8h-2.5L194.7,12.7z"/>
	<polygon class="st0" points="202.8,1.5 202.8,14.2 207.1,14.2 207.1,16.3 200.5,16.3 200.5,1.5 	"/>
	<path class="st0" d="M226.3,2.3v2.6c-1.3-1.1-2.6-1.6-4-1.6c-1.5,0-2.8,0.5-3.9,1.6c-1,1.1-1.6,2.4-1.6,4c0,1.6,0.5,2.9,1.6,3.9
		c1.1,1.1,2.3,1.6,3.9,1.6c0.8,0,1.5-0.1,2-0.4c0.3-0.1,0.6-0.3,1-0.5c0.3-0.2,0.7-0.5,1-0.8v2.7c-1.3,0.7-2.6,1.1-4,1.1
		c-2.1,0-3.9-0.7-5.4-2.2c-1.5-1.5-2.2-3.3-2.2-5.4c0-1.9,0.6-3.6,1.9-5.1c1.5-1.8,3.5-2.7,6-2.7C223.7,1.2,225,1.5,226.3,2.3"/>
	<path class="st0" d="M230.1,8.8c0,1.6,0.6,3,1.7,4c1.1,1.1,2.4,1.6,3.8,1.6c1.6,0,2.9-0.5,3.9-1.6c1.1-1.1,1.6-2.4,1.6-4
		c0-1.6-0.5-2.9-1.6-4c-1.1-1.1-2.3-1.6-3.9-1.6c-1.5,0-2.8,0.5-3.9,1.6C230.7,6,230.1,7.3,230.1,8.8 M227.9,8.8
		c0-2.1,0.8-3.9,2.3-5.4c1.5-1.5,3.4-2.2,5.5-2.2c2.1,0,3.9,0.8,5.4,2.3c1.5,1.5,2.3,3.3,2.3,5.4c0,2.1-0.8,3.9-2.3,5.4
		c-1.5,1.5-3.4,2.2-5.5,2.2c-1.9,0-3.6-0.7-5.2-2C228.7,13.1,227.9,11.2,227.9,8.8"/>
	<polygon class="st0" points="247.6,1.5 247.6,14.2 252,14.2 252,16.3 245.4,16.3 245.4,1.5 	"/>
	<polygon class="st0" points="256.4,1.5 256.4,14.2 260.7,14.2 260.7,16.3 254.1,16.3 254.1,1.5 	"/>
	<polygon class="st0" points="271,3.6 265.1,3.6 265.1,7.1 270.9,7.1 270.9,9.2 265.1,9.2 265.1,14.2 271,14.2 271,16.3 262.9,16.3 
		262.9,1.5 271,1.5 	"/>
	<path class="st0" d="M281.2,8.6h6.1v0.5c0,1.1-0.1,2.1-0.4,3c-0.3,0.8-0.7,1.5-1.3,2.2c-1.4,1.5-3.1,2.3-5.3,2.3
		c-2.1,0-3.9-0.7-5.3-2.2c-1.5-1.5-2.2-3.3-2.2-5.4c0-2.2,0.8-4,2.3-5.5c1.5-1.5,3.3-2.3,5.5-2.3c1.2,0,2.2,0.2,3.2,0.7
		c1,0.5,1.9,1.2,2.8,2.3l-1.6,1.5c-1.2-1.6-2.7-2.4-4.4-2.4c-1.6,0-2.9,0.5-3.9,1.6c-1.1,1.1-1.6,2.4-1.6,4c0,1.7,0.6,3,1.8,4.1
		c1.1,1,2.3,1.5,3.6,1.5c1.1,0,2.1-0.4,3-1.1c0.9-0.7,1.4-1.6,1.5-2.7h-3.7V8.6z"/>
	<polygon class="st0" points="297.6,3.6 291.6,3.6 291.6,7.1 297.4,7.1 297.4,9.2 291.6,9.2 291.6,14.2 297.6,14.2 297.6,16.3 
		289.4,16.3 289.4,1.5 297.6,1.5 	"/>
</g>
<g>
	<path class="st0" d="M49.3,34c-0.6,0.3-1.7,0.5-3,0.5c-2.9,0-4.7-1.8-4.7-4.8c0-2.2,0.9-4.2,2.5-5.5c1.2-1,2.6-1.6,4.3-1.6
		c1.3,0,2.2,0.3,2.5,0.6l-0.5,1.1c-0.4-0.3-1.2-0.5-2.3-0.5c-1.2,0-2.4,0.5-3.3,1.3c-1.1,1-1.8,2.6-1.8,4.4c0,2.1,0.9,3.7,3.5,3.7
		c0.9,0,1.8-0.2,2.5-0.5L49.3,34z"/>
	<path class="st0" d="M56.6,33.9c-0.6,0.4-1.6,0.6-2.7,0.6c-2.2,0-3.1-1.5-3.1-3.3c0-2.5,1.8-5.3,4.5-5.3c1.6,0,2.4,0.9,2.4,2.1
		c0,2.2-2.4,2.7-5.5,2.7c-0.1,0.4,0,1.1,0.2,1.6c0.3,0.7,1,1.1,1.8,1.1c1,0,1.7-0.3,2.2-0.6L56.6,33.9z M55,27
		c-1.3,0-2.4,1.3-2.7,2.6c2.2,0,4-0.3,4-1.6C56.3,27.4,55.8,27,55,27z"/>
	<path class="st0" d="M58.4,34.4l1.1-5.8c0.2-0.9,0.3-1.7,0.4-2.4h1.3l-0.2,1.6h0c0.7-1.2,1.8-1.8,3.1-1.8c1,0,2.1,0.6,2.1,2.3
		c0,0.4-0.1,0.9-0.2,1.3L65,34.4h-1.4l0.9-4.8c0.1-0.3,0.1-0.7,0.1-1.1c0-0.8-0.3-1.4-1.3-1.4c-1,0-2.4,1.2-2.8,3.3l-0.7,4H58.4z"/>
	<path class="st0" d="M71.2,23.9l-0.4,2.2h2l-0.2,1.1h-2l-0.8,4c-0.1,0.5-0.2,0.9-0.2,1.3c0,0.5,0.2,0.8,0.8,0.8
		c0.2,0,0.5,0,0.7-0.1L71,34.4c-0.3,0.1-0.7,0.2-1.1,0.2c-1.3,0-1.7-0.8-1.7-1.6c0-0.5,0.1-1,0.2-1.6l0.8-4.2h-1.2l0.2-1.1h1.2
		l0.4-1.9L71.2,23.9z"/>
	<path class="st0" d="M72.8,34.4l1-5.3c0.2-1.1,0.3-2.2,0.4-2.9h1.2c-0.1,0.6-0.1,1.2-0.2,1.8h0.1c0.5-1.1,1.4-2,2.5-2
		c0.1,0,0.3,0,0.4,0L78,27.4c-0.1,0-0.2,0-0.4,0c-1.2,0-2.3,1.5-2.7,3.4l-0.7,3.6H72.8z"/>
	<path class="st0" d="M83.4,34.4c0-0.5,0.1-1.3,0.2-2.1h0c-0.9,1.7-2,2.3-3.2,2.3c-1.4,0-2.4-1.2-2.4-2.7c0-2.9,2.1-5.9,5.7-5.9
		c0.8,0,1.7,0.1,2.2,0.3l-0.8,4.3c-0.3,1.4-0.4,2.9-0.4,3.8H83.4z M84.4,27.2c-0.2-0.1-0.5-0.1-1-0.1c-2.1,0-3.9,2.2-3.9,4.5
		c0,0.9,0.3,1.8,1.4,1.8c1.2,0,2.6-1.5,3-3.7L84.4,27.2z"/>
	<path class="st0" d="M86.9,34.4l2.3-12.1h1.4l-2.3,12.1H86.9z"/>
	<path class="st0" d="M97.6,23.9l-0.4,2.2h2l-0.2,1.1h-2l-0.8,4c-0.1,0.5-0.2,0.9-0.2,1.3c0,0.5,0.2,0.8,0.8,0.8
		c0.2,0,0.5,0,0.7-0.1l-0.1,1.1c-0.3,0.1-0.7,0.2-1.1,0.2c-1.3,0-1.7-0.8-1.7-1.6c0-0.5,0.1-1,0.2-1.6l0.8-4.2h-1.2l0.2-1.1h1.2
		l0.4-1.9L97.6,23.9z"/>
	<path class="st0" d="M107.1,29.4c0,2.5-1.8,5.2-4.6,5.2c-2.1,0-3.2-1.5-3.2-3.4c0-2.7,1.9-5.2,4.6-5.2
		C106.1,25.9,107.1,27.6,107.1,29.4z M100.7,31.1c0,1.3,0.7,2.3,1.9,2.3c1.7,0,2.9-2.1,2.9-4.1c0-1-0.4-2.3-1.9-2.3
		C101.9,27,100.7,29.2,100.7,31.1z"/>
	<path class="st0" d="M114.8,23.9l-0.4,2.2h2l-0.2,1.1h-2l-0.8,4c-0.1,0.5-0.2,0.9-0.2,1.3c0,0.5,0.2,0.8,0.8,0.8
		c0.2,0,0.5,0,0.7-0.1l-0.1,1.1c-0.3,0.1-0.7,0.2-1.1,0.2c-1.3,0-1.7-0.8-1.7-1.6c0-0.5,0.1-1,0.2-1.6l0.8-4.2h-1.2l0.2-1.1h1.2
		l0.4-1.9L114.8,23.9z"/>
	<path class="st0" d="M116.5,34.4l2.3-12.1h1.4l-1,5.3h0c0.7-1,1.7-1.7,2.9-1.7c0.9,0,2,0.6,2,2.2c0,0.4-0.1,1-0.1,1.4l-0.9,4.8
		h-1.4l0.9-4.8c0.1-0.3,0.1-0.7,0.1-1.1c0-0.8-0.4-1.4-1.3-1.4c-1.1,0-2.5,1.3-2.8,3.1l-0.8,4.1H116.5z"/>
	<path class="st0" d="M131.5,33.9c-0.6,0.4-1.6,0.6-2.7,0.6c-2.2,0-3.1-1.5-3.1-3.3c0-2.5,1.8-5.3,4.5-5.3c1.6,0,2.4,0.9,2.4,2.1
		c0,2.2-2.4,2.7-5.5,2.7c-0.1,0.4,0,1.1,0.2,1.6c0.3,0.7,1,1.1,1.8,1.1c1,0,1.7-0.3,2.2-0.6L131.5,33.9z M130,27
		c-1.3,0-2.4,1.3-2.7,2.6c2.2,0,4-0.3,4-1.6C131.2,27.4,130.7,27,130,27z"/>
	<path class="st0" d="M144.4,34c-0.6,0.3-1.7,0.5-3,0.5c-2.9,0-4.7-1.8-4.7-4.8c0-2.2,0.9-4.2,2.5-5.5c1.2-1,2.6-1.6,4.3-1.6
		c1.3,0,2.2,0.3,2.5,0.6l-0.5,1.1c-0.4-0.3-1.2-0.5-2.3-0.5c-1.2,0-2.4,0.5-3.3,1.3c-1.1,1-1.8,2.6-1.8,4.4c0,2.1,0.9,3.7,3.5,3.7
		c0.9,0,1.8-0.2,2.5-0.5L144.4,34z"/>
	<path class="st0" d="M153.7,29.4c0,2.5-1.8,5.2-4.6,5.2c-2.1,0-3.2-1.5-3.2-3.4c0-2.7,1.9-5.2,4.6-5.2
		C152.7,25.9,153.7,27.6,153.7,29.4z M147.3,31.1c0,1.3,0.7,2.3,1.9,2.3c1.7,0,2.9-2.1,2.9-4.1c0-1-0.4-2.3-1.9-2.3
		C148.5,27,147.3,29.2,147.3,31.1z"/>
	<path class="st0" d="M154.7,34.4l1.1-5.8c0.2-0.9,0.3-1.7,0.4-2.4h1.2l-0.2,1.5h0.1c0.8-1.1,1.8-1.7,2.9-1.7c1.3,0,1.9,0.8,1.9,1.8
		c0.7-1.2,1.8-1.8,3-1.8c1,0,2,0.6,2,2.2c0,0.4,0,0.9-0.1,1.4l-0.9,4.9h-1.4l0.9-4.8c0.1-0.3,0.1-0.7,0.1-1.1c0-0.9-0.3-1.4-1.2-1.4
		c-1,0-2.2,1.2-2.6,3l-0.8,4.2h-1.4l0.9-4.8c0.1-0.4,0.1-0.7,0.1-1c0-0.7-0.2-1.4-1.2-1.4s-2.3,1.4-2.6,3.1l-0.8,4.1H154.7z"/>
	<path class="st0" d="M168.4,34.4l1.1-5.8c0.2-0.9,0.3-1.7,0.4-2.4h1.2l-0.2,1.5h0.1c0.8-1.1,1.8-1.7,2.9-1.7c1.3,0,1.9,0.8,1.9,1.8
		c0.7-1.2,1.8-1.8,3-1.8c1,0,2,0.6,2,2.2c0,0.4-0.1,0.9-0.1,1.4l-0.9,4.9h-1.4l0.9-4.8c0.1-0.3,0.1-0.7,0.1-1.1
		c0-0.9-0.3-1.4-1.2-1.4c-1,0-2.2,1.2-2.6,3l-0.8,4.2h-1.4l0.9-4.8c0.1-0.4,0.1-0.7,0.1-1c0-0.7-0.2-1.4-1.2-1.4
		c-1,0-2.3,1.4-2.6,3.1l-0.8,4.1H168.4z"/>
	<path class="st0" d="M190.2,26.1l-1.1,5.8c-0.2,0.9-0.3,1.7-0.4,2.4h-1.3l0.2-1.6h0c-0.7,1.1-1.8,1.7-2.9,1.7
		c-1.1,0-2.2-0.5-2.2-2.4c0-0.4,0-0.8,0.2-1.4l0.9-4.7h1.4l-0.9,4.6c-0.1,0.5-0.2,0.9-0.2,1.2c0,0.9,0.4,1.4,1.3,1.4
		c1,0,2.3-1.2,2.7-3l0.8-4.2H190.2z"/>
	<path class="st0" d="M191.1,34.4l1.1-5.8c0.2-0.9,0.3-1.7,0.4-2.4h1.3l-0.2,1.6h0c0.7-1.2,1.8-1.8,3.1-1.8c1,0,2.1,0.6,2.1,2.3
		c0,0.4-0.1,0.9-0.2,1.3l-0.9,4.8h-1.4l0.9-4.8c0.1-0.3,0.1-0.7,0.1-1.1c0-0.8-0.3-1.4-1.3-1.4c-1,0-2.4,1.2-2.8,3.3l-0.7,4H191.1z"
		/>
	<path class="st0" d="M200.2,34.4l1.6-8.2h1.4l-1.6,8.2H200.2z M202,23.8c0-0.5,0.4-1,0.9-1c0.5,0,0.8,0.4,0.8,0.9c0,0.6-0.4,1-1,1
		C202.4,24.7,202,24.3,202,23.8z"/>
	<path class="st0" d="M207.8,23.9l-0.4,2.2h2l-0.2,1.1h-2l-0.8,4c-0.1,0.5-0.2,0.9-0.2,1.3c0,0.5,0.2,0.8,0.8,0.8
		c0.2,0,0.5,0,0.7-0.1l-0.1,1.1c-0.3,0.1-0.7,0.2-1.1,0.2c-1.3,0-1.7-0.8-1.7-1.6c0-0.5,0.1-1,0.2-1.6l0.8-4.2h-1.2l0.2-1.1h1.2
		l0.4-1.9L207.8,23.9z"/>
	<path class="st0" d="M211.4,26.1l0.8,4.4c0.2,0.9,0.3,1.6,0.4,2.2h0c0.2-0.5,0.5-1.1,0.9-2l2.1-4.6h1.5l-3.1,6.3
		c-0.9,1.8-1.7,3.2-2.8,4.3c-0.9,0.9-1.9,1.3-2.4,1.4l-0.3-1.2c0.4-0.1,1-0.4,1.5-0.8c0.5-0.4,1.1-1.1,1.6-1.9
		c0.1-0.1,0.1-0.2,0.1-0.4l-1.7-7.8H211.4z"/>
	<path class="st0" d="M220.5,34.4l1.3-7.1h-1.1l0.2-1.1h1.1l0.1-0.4c0.2-1.2,0.6-2.2,1.3-2.9c0.5-0.5,1.2-0.7,2-0.7
		c0.6,0,0.9,0.1,1.1,0.2l-0.3,1.1c-0.2-0.1-0.5-0.2-0.8-0.2c-1.1,0-1.7,1.1-1.9,2.5l-0.1,0.4h1.8l-0.2,1.1h-1.8l-1.4,7.1H220.5z"/>
	<path class="st0" d="M233,29.4c0,2.5-1.8,5.2-4.6,5.2c-2.1,0-3.2-1.5-3.2-3.4c0-2.7,1.9-5.2,4.6-5.2C232,25.9,233,27.6,233,29.4z
		 M226.7,31.1c0,1.3,0.7,2.3,1.9,2.3c1.7,0,2.9-2.1,2.9-4.1c0-1-0.4-2.3-1.9-2.3C227.8,27,226.6,29.2,226.7,31.1z"/>
	<path class="st0" d="M234,34.4l1-5.3c0.2-1.1,0.3-2.2,0.4-2.9h1.2c-0.1,0.6-0.1,1.2-0.2,1.8h0c0.5-1.1,1.4-2,2.5-2
		c0.1,0,0.3,0,0.4,0l-0.3,1.4c-0.1,0-0.2,0-0.4,0c-1.2,0-2.3,1.5-2.7,3.4l-0.7,3.6H234z"/>
	<path class="st0" d="M250.1,24.5h-3.8l-0.9,2.8c0.2,0,0.4,0,0.5,0c0.6,0,1.3,0.1,1.9,0.5c0.9,0.5,1.3,1.5,1.3,2.4
		c0,2.7-2.1,4.3-4.5,4.3c-1.1,0-2-0.3-2.4-0.6l0.4-1.1c0.4,0.3,1.2,0.5,2.1,0.5c1.6,0,3-1.2,3-2.8c0-1.2-0.6-2.1-2.7-2.1
		c-0.5,0-0.8,0-1.2,0.1l1.5-5.2h5L250.1,24.5z"/>
	<path class="st0" d="M258.7,26.6c0,3.6-1.7,8-4.8,8c-2,0-2.8-1.7-2.8-3.8c0-3.7,1.9-7.7,4.8-7.7C258.1,23.1,258.7,24.9,258.7,26.6z
		 M252.6,30.8c0,1.2,0.2,2.6,1.6,2.6c2.1,0,3.2-4.5,3.2-6.7c0-0.9-0.1-2.4-1.5-2.4C253.9,24.2,252.6,28.1,252.6,30.8z"/>
	<path class="st0" d="M264.6,34.4l0.9-4.8l-2.2-6.7h1.5l1.1,3.7c0.3,1,0.4,1.5,0.5,1.9h0c0.3-0.5,0.7-1.1,1.2-2l2.5-3.7h1.7
		l-4.9,6.7l-0.9,4.8H264.6z"/>
	<path class="st0" d="M276,33.9c-0.6,0.4-1.6,0.6-2.7,0.6c-2.2,0-3.1-1.5-3.1-3.3c0-2.5,1.8-5.3,4.5-5.3c1.6,0,2.4,0.9,2.4,2.1
		c0,2.2-2.4,2.7-5.5,2.7c-0.1,0.4,0,1.1,0.2,1.6c0.3,0.7,1,1.1,1.8,1.1c1,0,1.7-0.3,2.2-0.6L276,33.9z M274.4,27
		c-1.3,0-2.4,1.3-2.7,2.6c2.2,0,4-0.3,4-1.6C275.7,27.4,275.2,27,274.4,27z"/>
	<path class="st0" d="M283.2,34.4c0-0.5,0.1-1.3,0.2-2.1h0c-0.9,1.7-2,2.3-3.2,2.3c-1.4,0-2.4-1.2-2.4-2.7c0-2.9,2.1-5.9,5.7-5.9
		c0.8,0,1.7,0.1,2.2,0.3l-0.8,4.3c-0.3,1.4-0.4,2.9-0.4,3.8H283.2z M284.1,27.2c-0.2-0.1-0.5-0.1-1-0.1c-2.1,0-3.9,2.2-3.9,4.5
		c0,0.9,0.3,1.8,1.4,1.8c1.2,0,2.6-1.5,3-3.7L284.1,27.2z"/>
	<path class="st0" d="M286.6,34.4l1-5.3c0.2-1.1,0.3-2.2,0.4-2.9h1.2c-0.1,0.6-0.1,1.2-0.2,1.8h0.1c0.5-1.1,1.4-2,2.5-2
		c0.1,0,0.3,0,0.4,0l-0.3,1.4c-0.1,0-0.2,0-0.4,0c-1.2,0-2.3,1.5-2.7,3.4l-0.7,3.6H286.6z"/>
	<path class="st0" d="M292.1,32.9c0.4,0.2,1.1,0.5,1.8,0.5c1,0,1.6-0.6,1.6-1.3c0-0.6-0.3-1-1.1-1.5c-1-0.5-1.5-1.3-1.5-2.1
		c0-1.4,1.2-2.6,3-2.6c0.8,0,1.4,0.2,1.7,0.4l-0.4,1.1c-0.3-0.2-0.8-0.4-1.4-0.4c-0.9,0-1.5,0.5-1.5,1.2c0,0.6,0.4,1,1.1,1.4
		c0.9,0.5,1.6,1.2,1.6,2.2c0,1.7-1.4,2.7-3.2,2.7c-0.9,0-1.7-0.3-2-0.6L292.1,32.9z"/>
</g>
</svg>
